<svg id="Layer_1" data-name="Layer 1" xmlns="http://www.w3.org/2000/svg" viewBox="50.38 160.3 499.2 89.82"><defs><style>.cls-1{fill:#fff;}</style></defs><title>Untitled-3</title><path class="cls-1" d="M276.32,181.41a7.83,7.83,0,0,0,8.58-8.61l0-10.58h-4.32l0,10.41a5.6,5.6,0,0,1-1.11,3.89,4.65,4.65,0,0,1-6.21,0,5.6,5.6,0,0,1-1.1-3.89l0-10.42h-4.37l0,10.58a7.84,7.84,0,0,0,8.53,8.66Z"/><polygon class="cls-1" points="293.55 169.67 302.94 181.16 306.53 181.17 306.58 162.28 302.26 162.26 302.23 173.73 292.87 162.24 289.25 162.23 289.2 181.12 293.52 181.13 293.55 169.67"/><rect class="cls-1" x="303.77" y="169.56" width="18.89" height="4.37" transform="translate(140.61 484.49) rotate(-89.84)"/><polygon class="cls-1" points="323.77 181.22 328.15 181.23 328.19 165.9 334.24 165.92 334.24 162.35 317.78 162.31 317.77 165.87 323.82 165.89 323.77 181.22"/><polygon class="cls-1" points="351.18 177.78 340.89 177.76 340.91 173.38 349.68 173.41 349.69 170.01 340.92 169.98 340.93 165.88 350.86 165.91 350.87 162.4 336.59 162.36 336.54 181.25 351.17 181.29 351.18 177.78"/><path class="cls-1" d="M368.71,163.62a12,12,0,0,0-5.42-1.19l-8.59,0-.05,18.89,8.59,0a12,12,0,0,0,5.42-1.16,8.91,8.91,0,0,0,3.68-3.29,10,10,0,0,0,0-10A9.06,9.06,0,0,0,368.71,163.62ZM368.47,175a5.1,5.1,0,0,1-2.16,2,7.05,7.05,0,0,1-3.28.71h-4l0-11.72h4a7.18,7.18,0,0,1,3.28.73,5.2,5.2,0,0,1,2.15,2,6.67,6.67,0,0,1,0,6.22Z"/><polygon class="cls-1" points="272.23 205.72 280.82 205.74 280.8 213.49 285.17 213.5 285.22 194.61 280.85 194.6 280.83 202.04 272.24 202.02 272.26 194.57 267.89 194.56 267.84 213.45 272.21 213.47 272.23 205.72"/><path class="cls-1" d="M291.4,211.06a9.72,9.72,0,0,0,3.28,2.06,11.41,11.41,0,0,0,4.14.74,11.18,11.18,0,0,0,4.1-.71,10.13,10.13,0,0,0,3.27-2,9.46,9.46,0,0,0,2.18-3.1,9.71,9.71,0,0,0,.79-3.9,9.4,9.4,0,0,0-.77-3.9,9.6,9.6,0,0,0-2.17-3.1,10,10,0,0,0-3.25-2.06,11.43,11.43,0,0,0-4.12-.74,11.22,11.22,0,0,0-4.1.72,10,10,0,0,0-3.3,2,9.13,9.13,0,0,0-2.18,3.1,9.57,9.57,0,0,0-.78,3.88,9.74,9.74,0,0,0,.75,3.89A9.26,9.26,0,0,0,291.4,211.06Zm2-9.44a5.65,5.65,0,0,1,3.14-3.15,6.11,6.11,0,0,1,2.33-.42,6.42,6.42,0,0,1,2.35.43,5.44,5.44,0,0,1,1.87,1.25,5.83,5.83,0,0,1,1.24,1.92,6.69,6.69,0,0,1,.44,2.46,6.6,6.6,0,0,1-.46,2.45,5.57,5.57,0,0,1-3.14,3.15,6.11,6.11,0,0,1-2.33.43,6.22,6.22,0,0,1-2.35-.44,5.44,5.44,0,0,1-1.87-1.25,5.77,5.77,0,0,1-1.24-1.93,6.9,6.9,0,0,1,0-4.9Z"/><path class="cls-1" d="M312.32,194.68l0,10.58a8.57,8.57,0,1,0,17.11.05l0-10.58h-4.32l0,10.42A5.57,5.57,0,0,1,324,209a4.65,4.65,0,0,1-6.21,0,5.6,5.6,0,0,1-1.1-3.89l0-10.42Z"/><path class="cls-1" d="M332.63,200.3a4.65,4.65,0,0,0,.6,2.48,4.71,4.71,0,0,0,1.57,1.57,9.81,9.81,0,0,0,2.15,1,22.61,22.61,0,0,0,2.34.64c.79.18,1.5.36,2.15.55a4.72,4.72,0,0,1,1.56.73,1.42,1.42,0,0,1,.59,1.2,1.64,1.64,0,0,1-.38,1.06,2.46,2.46,0,0,1-1.17.71,7.13,7.13,0,0,1-2.1.25,10.58,10.58,0,0,1-3.36-.57,10.83,10.83,0,0,1-2.87-1.42l-1.49,3.29a10.19,10.19,0,0,0,3.34,1.59,16,16,0,0,0,4.35.62,10.8,10.8,0,0,0,4.47-.8,6.19,6.19,0,0,0,2.66-2.13,5.13,5.13,0,0,0,.9-2.91,4.62,4.62,0,0,0-.6-2.46,4.94,4.94,0,0,0-1.58-1.57,9.46,9.46,0,0,0-2.14-1c-.78-.23-1.56-.44-2.35-.63s-1.49-.36-2.14-.54a4.53,4.53,0,0,1-1.56-.72,1.4,1.4,0,0,1-.6-1.18,1.83,1.83,0,0,1,.36-1.09,2.4,2.4,0,0,1,1.16-.76,6.06,6.06,0,0,1,2.08-.3,9.84,9.84,0,0,1,2.59.38,11.49,11.49,0,0,1,2.64,1.12l1.36-3.31a10.3,10.3,0,0,0-3-1.27,14.91,14.91,0,0,0-3.51-.42,10.67,10.67,0,0,0-4.44.78,6.06,6.06,0,0,0-2.66,2.13A5.27,5.27,0,0,0,332.63,200.3Z"/><polygon class="cls-1" points="355.28 205.81 364.06 205.84 364.07 202.44 355.29 202.41 355.3 198.31 365.24 198.34 365.25 194.83 350.97 194.79 350.92 213.68 365.55 213.72 365.56 210.21 355.27 210.19 355.28 205.81"/><path class="cls-1" d="M385.84,214.1a11.09,11.09,0,0,0,4.09-.71,10.07,10.07,0,0,0,3.28-2,9.61,9.61,0,0,0,2.18-3.1,9.71,9.71,0,0,0,.79-3.9,9.4,9.4,0,0,0-2.94-7A9.89,9.89,0,0,0,390,195.3a11.94,11.94,0,0,0-8.22,0,9.82,9.82,0,0,0-3.29,2,9.13,9.13,0,0,0-2.18,3.1,10.25,10.25,0,0,0,0,7.77,9.26,9.26,0,0,0,2.16,3.11,9.62,9.62,0,0,0,3.28,2.06A11.41,11.41,0,0,0,385.84,214.1Zm-5.47-7.34a7,7,0,0,1,0-4.9,5.73,5.73,0,0,1,3.14-3.15,6.13,6.13,0,0,1,2.34-.42,6.42,6.42,0,0,1,2.35.43,5.44,5.44,0,0,1,1.87,1.25,5.83,5.83,0,0,1,1.24,1.92,6.69,6.69,0,0,1,.44,2.46,6.6,6.6,0,0,1-.46,2.45,5.72,5.72,0,0,1-1.26,1.92,5.62,5.62,0,0,1-1.88,1.23,6.11,6.11,0,0,1-2.33.43,6.22,6.22,0,0,1-2.35-.44,5.44,5.44,0,0,1-1.87-1.25A5.77,5.77,0,0,1,380.37,206.76Z"/><polygon class="cls-1" points="412.58 206.97 412.59 203.46 403.85 203.44 403.86 198.44 413.77 198.47 413.78 194.96 399.5 194.92 399.45 213.82 403.82 213.83 403.84 206.95 412.58 206.97"/><polygon class="cls-1" points="438.97 210.42 428.69 210.39 428.7 206.01 437.47 206.04 437.48 202.64 428.71 202.61 428.72 198.51 438.65 198.54 438.66 195.03 424.39 194.99 424.33 213.88 438.96 213.93 438.97 210.42"/><polygon class="cls-1" points="445.12 213.94 449.62 207.39 454.16 213.97 459.21 213.98 452.19 204.19 458.8 195.09 454.05 195.07 449.78 201.18 445.47 195.05 440.5 195.04 447.1 204.33 440.1 213.93 445.12 213.94"/><path class="cls-1" d="M473.53,196a10.71,10.71,0,0,0-4.37-.84l-8.17,0-.06,18.9h4.38v-5.21h3.81a10.75,10.75,0,0,0,4.37-.81,6.38,6.38,0,0,0,2.84-2.36,6.47,6.47,0,0,0,1-3.64,6.65,6.65,0,0,0-1-3.67A6.32,6.32,0,0,0,473.53,196Zm-1.61,8.43a4.53,4.53,0,0,1-3,.86h-3.56l0-6.56h3.56a4.48,4.48,0,0,1,3,.87,3.43,3.43,0,0,1,0,4.83Z"/><polygon class="cls-1" points="495.06 210.57 484.78 210.54 484.79 206.17 493.56 206.19 493.57 202.79 484.8 202.77 484.81 198.67 494.74 198.69 494.75 195.19 480.47 195.15 480.42 214.04 495.05 214.08 495.06 210.57"/><path class="cls-1" d="M502.92,208.84h3.81l.19,0,3.62,5.29,4.73,0-4.21-6.08h0a6.36,6.36,0,0,0,2.84-2.32,6.54,6.54,0,0,0,1-3.63,6.68,6.68,0,0,0-1-3.68,6.42,6.42,0,0,0-2.83-2.36,10.42,10.42,0,0,0-4.37-.84l-8.18,0-.05,18.89h4.37Zm6.61-9.19a3.45,3.45,0,0,1,0,4.85,4.53,4.53,0,0,1-3,.87h-3.56l0-6.59h3.56A4.59,4.59,0,0,1,509.53,199.65Z"/><polygon class="cls-1" points="522.01 214.16 526.39 214.17 526.43 198.84 532.48 198.85 532.49 195.29 516.02 195.25 516.01 198.81 522.05 198.82 522.01 214.16"/><path class="cls-1" d="M543,210.77a7.06,7.06,0,0,1-2.09.25,10.57,10.57,0,0,1-3.36-.56,10.85,10.85,0,0,1-2.87-1.43l-1.49,3.29a10.09,10.09,0,0,0,3.34,1.59,15.18,15.18,0,0,0,4.34.62,10.61,10.61,0,0,0,4.47-.8,6.21,6.21,0,0,0,2.67-2.12,5.12,5.12,0,0,0,.89-2.91,4.45,4.45,0,0,0-.6-2.46,4.71,4.71,0,0,0-1.57-1.57,8.82,8.82,0,0,0-2.14-.95c-.78-.24-1.57-.45-2.35-.63s-1.5-.36-2.14-.54a5.1,5.1,0,0,1-1.57-.72,1.42,1.42,0,0,1-.59-1.18,1.74,1.74,0,0,1,.36-1.09,2.41,2.41,0,0,1,1.16-.77,6.34,6.34,0,0,1,2.08-.29,9.88,9.88,0,0,1,2.59.37,11.54,11.54,0,0,1,2.64,1.13l1.36-3.32a10.09,10.09,0,0,0-3.05-1.26,15.33,15.33,0,0,0-3.51-.43,11,11,0,0,0-4.44.78,6,6,0,0,0-2.65,2.13,5.21,5.21,0,0,0-.88,2.95,4.51,4.51,0,0,0,.6,2.49,4.71,4.71,0,0,0,1.57,1.57,10.21,10.21,0,0,0,2.14,1c.79.25,1.57.46,2.35.64s1.5.35,2.14.54a4.88,4.88,0,0,1,1.57.74,1.42,1.42,0,0,1,.59,1.2,1.63,1.63,0,0,1-.38,1.05A2.47,2.47,0,0,1,543,210.77Z"/><path class="cls-1" d="M316.27,236.44a7.43,7.43,0,0,0-1-3.92,7.27,7.27,0,0,0-2.91-2.72,9,9,0,0,0-4.2-1,10.67,10.67,0,0,0-5.87,1.71l1.53,3a7.12,7.12,0,0,1,4.34-1.44,4.75,4.75,0,0,1,3.36,1.18,4.08,4.08,0,0,1,1.26,3.14V240L302,240l-4.95,0h-5l-4.95,0v0H285a5,5,0,0,1-1.59-.18,1.57,1.57,0,0,1-.81-.77,15.42,15.42,0,0,1-.85-2.18l-3.26-9.54-3.32,1,3.26,9.51c.18.56.35,1,.51,1.4a21.36,21.36,0,0,1-5.69.72,21.67,21.67,0,0,1-5.24-.64v3.37a26,26,0,0,0,5.22.52,25,25,0,0,0,7.65-1.1,6.75,6.75,0,0,0,4.12,1.14h2.1l4.95,0H302l14.84,0,.52-3.26h-1.08Z"/><path class="cls-1" d="M359.43,240.11h-3.09a2.63,2.63,0,0,1-2.53-1.25,14,14,0,0,0-1.58-5.1,10.21,10.21,0,0,0-3-3.54,6.55,6.55,0,0,0-3.86-1.29,4.55,4.55,0,0,0-3.67,1.52,8.66,8.66,0,0,0-1.83,3.34,29.88,29.88,0,0,0-.78,3.9l-.08.7a2,2,0,0,1-.61,1.26,1.94,1.94,0,0,1-1.31.4h-3.34l0-8.64-.27-.11a12.24,12.24,0,0,0-3-1.48,10.08,10.08,0,0,0-3.15-.56,7.79,7.79,0,0,0-3.78.94,7.25,7.25,0,0,0-2.77,2.55,6.67,6.67,0,0,0,0,7.09,7.29,7.29,0,0,0,2.75,2.53,8,8,0,0,0,3.78.92h2.86a3.22,3.22,0,0,1-.68,2.21,2.69,2.69,0,0,1-2,.67c-.25,0-.45,0-.6,0l.51,3.31a6.39,6.39,0,0,0,4.57-1.64,6.23,6.23,0,0,0,1.75-4.51h3.77a5.06,5.06,0,0,0,3.39-1.12,12.22,12.22,0,0,0,5.09,1.15,19.42,19.42,0,0,0,3.37-.33,21.21,21.21,0,0,0,3.58-1,6.48,6.48,0,0,0,4.2,1.33H363l.06-20.06h-3.53ZM330.19,240h-2.8a4.57,4.57,0,0,1-2.12-.5,3.66,3.66,0,0,1-1.45-1.33,3.55,3.55,0,0,1-.52-1.9,3.59,3.59,0,0,1,.53-1.91,3.78,3.78,0,0,1,1.46-1.37,4.35,4.35,0,0,1,2.12-.51,6.55,6.55,0,0,1,2.8.71Zm15.8.05a7.21,7.21,0,0,1-1.77-.21,9.36,9.36,0,0,1-1.75-.64,3.09,3.09,0,0,0,0-.4c0-.16,0-.36.06-.59.13-1.14.27-2.1.43-2.91a6.15,6.15,0,0,1,.82-2.17,1.87,1.87,0,0,1,1.65-.95,3,3,0,0,1,2.08,1,8.44,8.44,0,0,1,1.79,2.64,11.76,11.76,0,0,1,1,3.58A15.88,15.88,0,0,1,346,240.08Z"/><rect class="cls-1" x="359.12" y="231.62" width="20.06" height="3.5" transform="translate(134.67 601.81) rotate(-89.83)"/><path class="cls-1" d="M387.15,239.72a2.42,2.42,0,0,1-1-2,2.22,2.22,0,0,1,1.09-1.92,5.14,5.14,0,0,1,2.95-.73,11.25,11.25,0,0,1,2.36.27,11.9,11.9,0,0,1,2.25.71l1.4-3a13.92,13.92,0,0,0-2.91-.89,15.5,15.5,0,0,0-3.09-.34,9.49,9.49,0,0,0-3.88.74,6.53,6.53,0,0,0-2.71,2.09,5.05,5.05,0,0,0-1,3.07,5.5,5.5,0,0,0,.77,2.8h-1.86v2.93l15.1,0v-2.94l-7,0A3.94,3.94,0,0,1,387.15,239.72Z"/><rect class="cls-1" x="391.73" y="231.71" width="20.06" height="3.5" transform="translate(167.26 634.61) rotate(-89.85)"/><path class="cls-1" d="M439.08,245.75a1.81,1.81,0,0,0-1.39.56,2.16,2.16,0,0,0,0,2.89,2,2,0,0,0,2.79,0,2,2,0,0,0,.57-1.44,2,2,0,0,0-.55-1.45A1.88,1.88,0,0,0,439.08,245.75Z"/><path class="cls-1" d="M449.63,223.26a2,2,0,0,0-.56,1.45,2,2,0,0,0,.55,1.45,1.86,1.86,0,0,0,1.38.58,1.92,1.92,0,0,0,1.41-.57,2.07,2.07,0,0,0,.57-1.44,2,2,0,0,0-.55-1.46,2,2,0,0,0-2.8,0Z"/><path class="cls-1" d="M465,240.41h-6v-3.56a7.43,7.43,0,0,0-1-3.92,7.29,7.29,0,0,0-2.9-2.71,8.91,8.91,0,0,0-4.2-1,10.59,10.59,0,0,0-5.88,1.7l1.53,3a7.19,7.19,0,0,1,4.34-1.45,4.79,4.79,0,0,1,3.36,1.18,4.1,4.1,0,0,1,1.26,3.14v3.56l-10.75,0h-2.26a3,3,0,0,1-1.67-.43,8.69,8.69,0,0,0,.22-2l0-7.6h-3.5l0,7.57a2.82,2.82,0,0,1-.51,1.91,2.46,2.46,0,0,1-1.89.56H429l-4.95,0H411.22l0-10h-3.53l0,13.09a3.38,3.38,0,0,1-.72,2.46,2.94,2.94,0,0,1-2.33.63l.5,3.26a6.1,6.1,0,0,0,4.4-1.67,6.24,6.24,0,0,0,1.68-4.45h2.91l4.95,0H429l5,0h1.56a5.58,5.58,0,0,0,4-1.23,5.74,5.74,0,0,0,3.82,1.25h1.45l18.13,0h5.63l.05-20.06H465Z"/><rect class="cls-1" x="464.68" y="231.91" width="20.06" height="3.5" transform="translate(239.62 707.66) rotate(-89.83)"/><path class="cls-1" d="M495.16,228a1.59,1.59,0,0,0,1.23.52,1.67,1.67,0,0,0,1.24-.51,1.74,1.74,0,0,0,.51-1.28,1.77,1.77,0,0,0-.49-1.29,1.69,1.69,0,0,0-1.25-.5,1.61,1.61,0,0,0-1.24.5,1.92,1.92,0,0,0,0,2.56Z"/><path class="cls-1" d="M499.5,225.47a1.74,1.74,0,0,0-.49,1.29,1.82,1.82,0,0,0,.48,1.28,1.64,1.64,0,0,0,1.23.51A1.62,1.62,0,0,0,502,228a1.75,1.75,0,0,0,.5-1.27,1.82,1.82,0,0,0-.48-1.3,1.71,1.71,0,0,0-1.26-.5A1.64,1.64,0,0,0,499.5,225.47Z"/><path class="cls-1" d="M539.91,246a1.67,1.67,0,0,0-1.23.49,1.83,1.83,0,0,0-.5,1.3,1.78,1.78,0,0,0,.49,1.28,1.64,1.64,0,0,0,1.23.51,1.69,1.69,0,0,0,1.25-.51,1.75,1.75,0,0,0,.5-1.27,1.78,1.78,0,0,0-.49-1.3A1.67,1.67,0,0,0,539.91,246Z"/><path class="cls-1" d="M535.57,245.94a1.63,1.63,0,0,0-1.23.49,1.81,1.81,0,0,0-.49,1.29,1.77,1.77,0,0,0,.49,1.28,1.59,1.59,0,0,0,1.23.52,1.68,1.68,0,0,0,1.24-.51,1.9,1.9,0,0,0,0-2.57A1.67,1.67,0,0,0,535.57,245.94Z"/><path class="cls-1" d="M546.08,230.58l0,10h-5.11a3,3,0,0,1-1.67-.43,9.26,9.26,0,0,0,.22-2l0-7.59H536l0,7.56a2.82,2.82,0,0,1-.52,1.91,2.43,2.43,0,0,1-1.88.56h-6.17l-5,0H510.29a3,3,0,0,1-1.64-.41,9.17,9.17,0,0,0,.22-2l0-7.6h-3.52l0,7.57a2.89,2.89,0,0,1-.52,1.91,2.48,2.48,0,0,1-1.89.56l-9.18,0a2.75,2.75,0,0,1-2.11-.78,2.94,2.94,0,0,1-.74-2.13,4.31,4.31,0,0,1,.49-2,7,7,0,0,1,1.51-1.88l-2.76-2a8.18,8.18,0,0,0-2.06,2.58,7.48,7.48,0,0,0-.71,3.29,6.21,6.21,0,0,0,1.58,4.5,5.91,5.91,0,0,0,4.44,1.65l9.88,0a5.88,5.88,0,0,0,4-1.23,5.93,5.93,0,0,0,3.87,1.25h11.29l4.95,0h6.52a5.66,5.66,0,0,0,4-1.22,5.76,5.76,0,0,0,3.82,1.25h1.45l6.38,0,0-13.31Z"/><path class="cls-1" d="M547.6,246.05a1.81,1.81,0,0,0-1.39.56,2.17,2.17,0,0,0,0,2.89,1.8,1.8,0,0,0,1.38.59,1.86,1.86,0,0,0,1.4-.58,2.14,2.14,0,0,0,0-2.89A1.85,1.85,0,0,0,547.6,246.05Z"/><rect class="cls-1" x="254.32" y="160.32" width="2.89" height="85.9"/><path class="cls-1" d="M207.19,202l19.15,26.37H215.42L201.56,209l-26.38,37.26H228a15.76,15.76,0,0,0,15.76-15.76V160.32h-6.56Z"/><path class="cls-1" d="M178.14,177.39h10.7l13,18.11L227,160.32H66.15a15.77,15.77,0,0,0-15.76,15.76v70.14H164.53L196,202.37Zm-67.07,28.77q0,11.13-5.93,17t-16.35,5.9q-10.49,0-16.42-5.9t-5.93-17V177.39H75.9v28.4c0,5.24,1.13,9.06,3.39,11.43s5.45,3.57,9.58,3.57,7.3-1.19,9.54-3.57,3.34-6.19,3.34-11.43v-28.4h9.32Zm58.55,22.2h-9.47V206.52H133.79v21.84h-9.46v-51h9.46v21.05h26.36V177.39h9.47Z"/></svg>