<svg version="1.1" id="Layer_1" xmlns="http://www.w3.org/2000/svg" x="0" y="0" viewBox="0 0 1000 1000" style="enable-background:new 0 0 1000 1000" xml:space="preserve"><style>.st0{fill:#004737}</style><path class="st0" d="M161.6 690c-4.8 0-8.5-1.4-11.2-4-2.7-2.7-4-6.5-4-11.4l.1-18.8h7.8l-.1 18.5c0 3.2.6 5.5 1.9 6.9 1.3 1.4 3.1 2.1 5.5 2.1s4.2-.7 5.5-2.1c1.3-1.4 2-3.7 2-6.9l.1-18.5h7.7l-.1 18.8c0 4.9-1.4 8.7-4.1 11.4-2.6 2.7-6.3 4-11.1 4zM184.5 689.5l.1-33.6h6.4l19.7 24.2h-3.1l.1-24.2h7.7l-.1 33.6h-6.4l-19.8-24.2h3.1l-.1 24.2h-7.6zM223.2 689.6l.1-33.6h7.8l-.1 33.6h-7.8zM245.9 689.7l.1-27.3h-10.7v-6.3l29.3.1v6.3h-10.7l-.1 27.3-7.9-.1zM276.4 683.5l18.3.1v6.2l-26-.1.1-33.6 25.4.1v6.2h-17.7l-.1 21.1zm-.6-13.8H292v6h-16.2v-6zM300.8 689.8l.1-33.6h15.3c3.6 0 6.9.7 9.6 2.1 2.8 1.4 4.9 3.3 6.5 5.8 1.6 2.5 2.3 5.5 2.3 8.9 0 3.4-.8 6.3-2.4 8.8-1.6 2.5-3.8 4.5-6.5 5.8-2.8 1.4-6 2.1-9.6 2.1l-15.3.1zm7.8-6.3h7.1c2.2 0 4.2-.4 5.8-1.3 1.6-.8 2.9-2 3.8-3.6.9-1.6 1.4-3.4 1.4-5.5s-.4-4-1.4-5.5c-.9-1.6-2.2-2.8-3.8-3.6-1.6-.9-3.6-1.3-5.8-1.3h-7.1v20.8zM361.8 690H354l.1-33.6h7.8l-.1 33.6zm15.9-13.7h-16.4v-6.6h16.4v6.6zm-.6-19.8h7.8l-.1 33.6H377l.1-33.6zM409.1 690.7c-2.7 0-5.1-.4-7.4-1.3-2.3-.9-4.2-2.1-5.8-3.7-1.6-1.6-2.9-3.4-3.8-5.5-.9-2.1-1.4-4.4-1.3-6.9 0-2.5.5-4.8 1.4-6.9s2.2-3.9 3.9-5.5c1.7-1.6 3.6-2.8 5.9-3.6 2.2-.9 4.7-1.3 7.3-1.3 2.7 0 5.1.4 7.3 1.3s4.2 2.1 5.8 3.7c1.6 1.6 2.9 3.4 3.8 5.5.9 2.1 1.4 4.4 1.4 6.9s-.5 4.8-1.4 6.9c-.9 2.1-2.2 4-3.9 5.5-1.7 1.5-3.6 2.7-5.8 3.6-2.4.9-4.8 1.3-7.4 1.3zm0-6.6c1.5 0 2.9-.2 4.2-.8 1.3-.5 2.4-1.2 3.3-2.2 1-1 1.7-2.1 2.2-3.4.5-1.3.8-2.8.8-4.4 0-1.6-.3-3.1-.8-4.4-.5-1.3-1.3-2.5-2.2-3.4-.9-1-2.1-1.7-3.3-2.2-1.3-.5-2.7-.8-4.2-.8s-2.9.2-4.2.8c-1.3.5-2.4 1.2-3.3 2.2s-1.7 2.1-2.2 3.4c-.5 1.3-.8 2.8-.8 4.4 0 1.6.3 3 .8 4.3.5 1.3 1.3 2.5 2.2 3.4.9 1 2.1 1.7 3.3 2.2 1.3.6 2.7.9 4.2.9zM448.2 690.8c-4.8 0-8.5-1.4-11.2-4-2.7-2.7-4-6.5-4-11.4l.1-18.8h7.8l-.1 18.5c0 3.2.6 5.5 1.9 6.9 1.3 1.4 3.1 2.1 5.5 2.1s4.2-.7 5.5-2.1c1.3-1.4 2-3.7 2-6.9l.1-18.5h7.7l-.1 18.8c0 4.9-1.4 8.7-4.1 11.4-2.6 2.7-6.3 4-11.1 4zM482.1 690.9c-2.7 0-5.3-.4-7.7-1.1-2.5-.7-4.4-1.7-5.9-2.8l2.7-5.8c1.4 1 3.1 1.9 5.1 2.5 2 .7 4 1 6 1 1.5 0 2.8-.1 3.7-.4.9-.3 1.6-.7 2.1-1.3.4-.5.7-1.2.7-1.9 0-.9-.3-1.6-1.1-2.1-.7-.5-1.6-1-2.8-1.3-1.2-.3-2.4-.7-3.8-1-1.4-.3-2.8-.7-4.2-1.1-1.4-.5-2.7-1-3.8-1.7-1.1-.7-2.1-1.6-2.8-2.8-.7-1.2-1.1-2.6-1.1-4.4 0-1.9.5-3.7 1.6-5.2 1-1.6 2.6-2.8 4.7-3.8 2.1-.9 4.7-1.4 7.9-1.4 2.1 0 4.2.3 6.2.8s3.9 1.3 5.4 2.2l-2.4 5.9c-1.6-.9-3.1-1.6-4.7-2-1.6-.4-3.1-.7-4.6-.7-1.5 0-2.7.2-3.7.5s-1.6.8-2.1 1.4c-.4.6-.6 1.2-.6 1.9 0 .9.3 1.6 1 2.1s1.6 1 2.8 1.3c1.2.3 2.4.6 3.8 1 1.4.3 2.8.7 4.2 1.1 1.4.4 2.7 1 3.8 1.7 1.1.7 2.1 1.6 2.8 2.8.7 1.2 1.1 2.6 1.1 4.4 0 1.9-.5 3.6-1.6 5.2s-2.6 2.8-4.7 3.8c-2.1.7-4.8 1.2-8 1.2zM509.4 684.2l18.3.1v6.2l-26-.1.1-33.6 25.4.1v6.2h-17.7l-.1 21.1zm-.5-13.8h16.2v6h-16.2v-6zM563.8 691.1c-2.7 0-5.1-.4-7.4-1.3-2.3-.9-4.2-2.1-5.8-3.7-1.6-1.6-2.9-3.4-3.8-5.5-.9-2.1-1.4-4.4-1.3-6.9 0-2.5.5-4.8 1.4-6.9.9-2.1 2.2-3.9 3.9-5.5 1.7-1.6 3.6-2.8 5.9-3.6 2.2-.9 4.7-1.3 7.3-1.3 2.7 0 5.1.4 7.3 1.3s4.2 2.1 5.8 3.7c1.6 1.6 2.9 3.4 3.8 5.5.9 2.1 1.4 4.4 1.4 6.9s-.5 4.8-1.4 6.9c-.9 2.1-2.2 4-3.9 5.5-1.7 1.5-3.6 2.7-5.8 3.6-2.4.9-4.8 1.3-7.4 1.3zm-.1-6.6c1.5 0 2.9-.2 4.2-.8 1.3-.5 2.4-1.2 3.3-2.2 1-1 1.7-2.1 2.2-3.4.5-1.3.8-2.8.8-4.4 0-1.6-.3-3.1-.8-4.4-.5-1.3-1.3-2.5-2.2-3.4-.9-1-2.1-1.7-3.3-2.2-1.3-.5-2.7-.8-4.2-.8s-2.9.2-4.2.8c-1.3.5-2.4 1.2-3.3 2.2-1 1-1.7 2.1-2.2 3.4-.5 1.3-.8 2.8-.8 4.4 0 1.6.3 3 .8 4.3.5 1.3 1.3 2.5 2.2 3.4.9 1 2.1 1.7 3.3 2.2 1.3.7 2.7.9 4.2.9zM595.7 690.7h-7.8l.1-33.7 25.4.1v6.2h-17.6l-.1 27.4zm-.5-18.5h16.1v6.2h-16.1v-6.2zM639.9 684.5l18.3.1v6.2l-26-.1.1-33.6 25.4.1v6.2H640l-.1 21.1zm-.5-13.8h16.2v6h-16.2v-6zM660.2 690.8l14.5-19.9v5.7l-13.8-19.4h8.8l9.5 13.5h-3.7l9.4-13.5h8.4l-13.8 19v-5.6l14.5 20.2h-9l-9.8-14.3h3.6l-9.8 14.2-8.8.1zM697.2 690.9l.1-33.6h14.5c3 0 5.6.5 7.8 1.5s3.8 2.4 5 4.2c1.2 1.8 1.8 4 1.8 6.5s-.6 4.7-1.8 6.5c-1.2 1.8-2.9 3.2-5 4.2-2.2 1-4.8 1.4-7.8 1.4h-10.2l3.5-3.5v12.8h-7.9zm7.8-11.8-3.4-3.7h9.8c2.4 0 4.2-.5 5.4-1.5 1.2-1 1.8-2.4 1.8-4.3s-.6-3.3-1.8-4.3c-1.2-1-3-1.5-5.4-1.5h-9.8l3.5-3.7-.1 19zM739.6 684.8l18.3.1v6.2l-26-.1.1-33.6 25.4.1v6.2h-17.7l-.1 21.1zm-.5-13.8h16.2v6h-16.2v-6zM764.1 691.1l.1-33.6h14.5c3 0 5.6.5 7.8 1.5s3.8 2.4 5 4.2c1.2 1.8 1.8 4 1.8 6.5s-.6 4.6-1.8 6.4c-1.2 1.8-2.9 3.2-5 4.1-2.2 1-4.8 1.4-7.8 1.4h-10.2l3.5-3.4V691l-7.9.1zm7.8-11.9-3.4-3.7h9.8c2.4 0 4.2-.5 5.4-1.5 1.2-1 1.8-2.5 1.8-4.3 0-1.9-.6-3.3-1.8-4.3-1.2-1-3-1.5-5.4-1.5h-9.8l3.5-3.7-.1 19zm13.5 12L777 679h8.3l8.5 12.2h-8.4zM805.8 691.2l.1-27.3h-10.7v-6.3l29.3.1v6.3h-10.7l-.1 27.3-7.9-.1zM839.3 691.9c-2.7 0-5.3-.4-7.7-1.1-2.5-.7-4.4-1.7-5.9-2.8l2.7-5.8c1.4 1 3.1 1.9 5.1 2.5 2 .7 4 1 6 1 1.5 0 2.8-.1 3.7-.4.9-.3 1.6-.7 2.1-1.3.4-.5.7-1.2.7-1.9 0-.9-.3-1.6-1.1-2.1-.7-.5-1.6-1-2.8-1.3-1.2-.3-2.4-.7-3.8-1-1.4-.3-2.8-.7-4.2-1.1-1.4-.5-2.7-1-3.8-1.7-1.1-.7-2.1-1.6-2.8-2.8-.7-1.2-1.1-2.6-1.1-4.4 0-1.9.5-3.7 1.6-5.2 1-1.6 2.6-2.8 4.7-3.8s4.7-1.4 7.9-1.4c2.1 0 4.2.3 6.2.8s3.9 1.3 5.4 2.2l-2.4 5.9c-1.6-.9-3.1-1.6-4.7-2-1.6-.4-3.1-.7-4.6-.7-1.5 0-2.7.2-3.7.5s-1.6.8-2.1 1.4c-.4.6-.6 1.2-.6 1.9 0 .9.3 1.6 1 2.1s1.6 1 2.8 1.3c1.2.3 2.4.6 3.8 1 1.4.3 2.8.7 4.2 1.1 1.4.4 2.7 1 3.8 1.7 1.1.7 2.1 1.6 2.8 2.8.7 1.2 1.1 2.6 1.1 4.4 0 1.9-.5 3.6-1.6 5.2s-2.6 2.8-4.7 3.8c-2.2.7-4.8 1.2-8 1.2zM213.3 604.9c0 3-.6 4.6-1.7 4.6H205c-5.3 0-9.5-1.2-12.5-3.7-7.2 2.4-15.1 3.6-23.9 3.6-5.5 0-10.9-.6-16-1.6v-9.3c5.1 1.3 10.5 1.9 16.1 1.9 6.8 0 13-.8 18.7-2.6-.2-.5-.7-1.8-1.5-4.1l-10.6-30.8 9.1-2.8 10.6 30.8c1.1 3.2 1.9 5.4 2.6 6.6.7 1.2 1.5 2 2.5 2.4 1 .4 2.6.6 4.9.6h6.6v.1c1.1-.2 1.7 1.3 1.7 4.3z"/><path class="st0" d="m258.4 600.6-1.4 9-45.4-.1c-1.1 0-1.7-1.5-1.7-4.6 0-3 .6-4.5 1.7-4.5l33.5.1v-12.8c0-4.3-1.3-7.7-4.1-10.2-2.7-2.5-6.4-3.8-10.9-3.8-5 0-9.7 1.5-14 4.6L212 570c5.5-3.6 11.6-5.4 18.2-5.4 4.8 0 9 1 12.8 3 3.7 2 6.7 4.7 8.8 8.2s3.1 7.5 3.1 11.9v12.8l3.5.1zM319.9 605.2c0 3-.6 4.6-1.7 4.6h-9.8v.2c0 5.9-1.6 10.5-4.8 13.8-3.2 3.3-7.6 5-13.3 5.1l-1.5-9.1c3.5.2 6-.4 7.6-2 1.6-1.5 2.3-4.2 2.3-7.9v-.2h-9.4c-4.2 0-8.1-1-11.7-2.9-3.6-2-6.4-4.6-8.5-7.9-2.1-3.3-3.1-7-3.1-11s1.1-7.6 3.2-11c2.1-3.3 5-5.9 8.5-7.9 3.6-1.9 7.5-2.9 11.7-2.9 2.9 0 6.1.5 9.4 1.6 3.3 1.1 6.4 2.5 9.1 4.3l.5.2-.1 28.5h9.8c1.3 0 1.8 1.5 1.8 4.5zm-21.2-4.5.1-23.3c-3.2-1.5-6.2-2.2-9.1-2.2-2.6 0-5 .6-7.2 1.7-2.1 1.1-3.8 2.7-5 4.6-1.2 1.9-1.8 4.1-1.8 6.4 0 2.3.6 4.4 1.8 6.4 1.2 1.9 2.8 3.5 5 4.7 2.1 1.2 4.5 1.7 7.2 1.8l9-.1z"/><path class="st0" d="M383.5 605.4c0 3-.6 4.6-1.7 4.6h-.6c-5.4 0-9.7-1.5-13-4.4-3.7 1.5-7.5 2.5-11.4 3.3-4 .7-7.6 1.1-10.9 1.1-5.4 0-10.7-1.2-15.8-3.5-2.8 2.3-6.4 3.4-10.7 3.4h-1.2c-1.1 0-1.7-1.5-1.7-4.6 0-3 .6-4.5 1.7-4.5h1.2c1.8 0 3.2-.4 4.3-1.3 1-.9 1.7-2.3 2-4.2l.3-2.2c.5-4.4 1.2-8.6 2.2-12.5.9-3.9 2.8-7.5 5.4-10.7 2.7-3.3 6.4-4.9 11.1-4.9 4.2 0 8.1 1.4 11.8 4.1 3.7 2.7 6.8 6.5 9.3 11.4 2.5 4.8 4 10.3 4.6 16.2 1.6 2.8 4.3 4.2 8.3 4.2h3.2c1 0 1.6 1.5 1.6 4.5zm-37.5-4.6c4.5 0 9.4-.8 14.8-2.4-.4-4.3-1.4-8.4-3-12.1-1.6-3.7-3.6-6.7-5.8-9-2.3-2.2-4.6-3.3-6.9-3.4-2.2 0-3.9 1-5.2 3-1.3 2-2.2 4.3-2.7 6.9-.5 2.6-1 5.7-1.4 9.2l-.5 4-.3 1.3c3.5 1.7 7.2 2.5 11 2.5z"/><path class="st0" d="M398.2 547.4 398 610h-16.2c-1.1 0-1.7-1.5-1.7-4.6 0-3 .6-4.5 1.7-4.5h6.5l.1-53.5h9.8zM412.5 547.5h9.7L422 610h-9.7l.2-62.5zM501.8 602.2v8.1l-45.9-.1v-8.1h6.2c-2.1-2.9-3.1-6.1-3.1-9.5 0-3.5 1-6.6 3-9.4 2-2.8 4.8-4.9 8.3-6.4 3.5-1.5 7.4-2.3 11.8-2.3 2.8 0 5.9.4 9.4 1.1 3.4.7 6.4 1.6 8.8 2.7l-3.9 8.3c-2-.9-4.3-1.6-6.9-2.1-2.6-.6-5.1-.9-7.3-.9-4.1 0-7.3.8-9.7 2.5-2.4 1.7-3.6 3.9-3.6 6.6 0 2.7 1.1 5 3.4 6.8 2.3 1.8 5.1 2.8 8.5 2.8l21-.1zM512.9 547.7h9.7l-.2 62.6h-9.7l.2-62.6zM583.5 605.9c0 3-.6 4.6-1.7 4.6h-4.3c-5.9 0-10.1-1.4-12.8-4.2-2.7-2.8-4-7.1-4-12.9v-.8c-2.4.6-4.8.9-7.3.9-2.6 0-5.1-.3-7.4-.9v18.1c0 5.9-1.6 10.5-4.8 13.8-3.2 3.3-7.6 5-13.3 5.1l-1.5-9.1c3.5.2 6-.4 7.6-2 1.6-1.5 2.3-4.2 2.3-7.9l.1-41.2h9.7v14.1c2.4.6 4.8.9 7.4.9 2.5 0 5-.3 7.3-.9v-14.1h9.7l-.1 23.9c0 3 .5 5.1 1.7 6.3 1.1 1.2 3.2 1.8 6.2 1.8h3.5c1.1.1 1.7 1.5 1.7 4.5zm-23 21.3c-1.1-1.1-1.6-2.5-1.6-4.2 0-1.7.5-3.1 1.6-4.2s2.4-1.6 4.1-1.6c1.6 0 3 .6 4 1.7 1.1 1.1 1.6 2.5 1.6 4.2 0 1.7-.5 3.1-1.6 4.2s-2.4 1.7-4.1 1.7c-1.6-.1-2.9-.6-4-1.8z"/><path class="st0" d="M639.5 606.1c0 3-.6 4.6-1.7 4.6l-56.1-.2c-1.1 0-1.7-1.5-1.7-4.6 0-3 .6-4.5 1.7-4.5l33.5.1v-12.8c0-4.3-1.3-7.7-4.1-10.2-2.7-2.5-6.4-3.8-10.9-3.8-5 0-9.7 1.5-14 4.6L582 571c5.5-3.6 11.6-5.4 18.2-5.4 4.8 0 9 1 12.8 3 3.7 2 6.7 4.7 8.8 8.2s3.1 7.5 3.1 11.9v12.8h12.8c1.3.1 1.8 1.6 1.8 4.6zm-42.9-49.8c-1.1-1.1-1.6-2.5-1.6-4.2 0-1.7.5-3.1 1.6-4.2s2.4-1.6 4.1-1.6c1.6 0 3 .6 4 1.7 1.1 1.1 1.6 2.5 1.6 4.2 0 1.7-.5 3.1-1.6 4.2s-2.4 1.7-4.1 1.7c-1.6-.1-2.9-.6-4-1.8z"/><path class="st0" d="m654.2 548.1-.2 62.6h-16.2c-1.1 0-1.7-1.5-1.7-4.6 0-3 .6-4.5 1.7-4.5h6.5l.1-53.5h9.8zM668.5 548.2h9.7l-.2 62.6h-9.7l.2-62.6zM791.9 606.5c0 3-.6 4.6-1.7 4.6h-4.6c-4.8 0-8.7-1.2-11.8-3.7-2.7 2.4-6.7 3.6-12.3 3.6l-30.2-.1c-5.9 0-10.4-1.7-13.7-5-3.3-3.3-4.9-7.9-4.9-13.7 0-3.8.8-7.1 2.2-10 1.5-2.9 3.6-5.5 6.4-7.9l7.8 5.5c-2.4 2-4.1 4-5.2 5.9-1.1 1.9-1.6 4.1-1.6 6.4 0 3 .8 5.3 2.5 7.1 1.7 1.7 4 2.6 7.1 2.6l28.7.1c3 0 5.1-.6 6.3-1.8 1.1-1.2 1.7-3.3 1.7-6.3l.1-23.9h9.7l-.1 24c0 2.5-.3 4.8-.8 6.8 1.5.8 3.2 1.3 5.3 1.3h7.3c1.2 0 1.8 1.5 1.8 4.5zm-55.3-44c-1-1-1.4-2.3-1.4-3.8s.5-2.8 1.5-3.8 2.2-1.5 3.7-1.5 2.7.5 3.7 1.5 1.4 2.3 1.4 3.8-.5 2.8-1.5 3.8-2.2 1.5-3.7 1.5-2.7-.5-3.7-1.5zm13.3 0c-1-1-1.4-2.3-1.4-3.8s.5-2.8 1.5-3.8 2.2-1.5 3.7-1.5 2.7.5 3.7 1.5 1.4 2.3 1.4 3.8-.5 2.8-1.5 3.8-2.2 1.5-3.7 1.5-2.7-.5-3.7-1.5z"/><path class="st0" d="M824.9 606.6c0 3-.6 4.6-1.7 4.6h-4.6c-4.8 0-8.7-1.2-11.8-3.7-2.7 2.4-6.7 3.6-12.3 3.6h-4.3c-1.1 0-1.7-1.5-1.7-4.6 0-3 .6-4.5 1.7-4.5h3.5c3 0 5.1-.6 6.3-1.8 1.1-1.2 1.7-3.3 1.7-6.3l.1-23.9h9.7l-.1 24c0 2.5-.3 4.8-.8 6.8 1.5.8 3.2 1.3 5.3 1.3h7.3c1.1 0 1.7 1.5 1.7 4.5zm-28.7 20.1c-1-1-1.4-2.3-1.4-3.8s.5-2.8 1.5-3.8 2.2-1.5 3.7-1.5 2.7.5 3.7 1.5 1.4 2.3 1.4 3.8-.5 2.8-1.5 3.8-2.2 1.5-3.7 1.5-2.8-.5-3.7-1.5zm13.3 0c-1-1-1.4-2.3-1.4-3.8s.5-2.8 1.5-3.8 2.2-1.5 3.7-1.5 2.7.5 3.7 1.5 1.4 2.3 1.4 3.8-.5 2.8-1.5 3.8-2.2 1.5-3.7 1.5c-1.5.1-2.7-.5-3.7-1.5z"/><path class="st0" d="m842 570.2-.1 41-18.7-.1c-1.1 0-1.7-1.5-1.7-4.6 0-3 .6-4.5 1.7-4.5h8.9l.1-32 9.8.2zm-9.9 57.8c-1.1-1.1-1.6-2.5-1.6-4.2s.5-3.1 1.6-4.2 2.4-1.6 4.1-1.6c1.6 0 3 .6 4 1.7 1.1 1.1 1.6 2.5 1.6 4.2 0 1.7-.5 3.1-1.6 4.2s-2.4 1.7-4.1 1.7c-1.6-.1-2.9-.7-4-1.8zM683.6 308.1l-61.4 85.3 39.2 54H639l-28.4-39.7-54 76.3h108c17.8 0 32.3-14.4 32.3-32.3V308.1h-13.3zM562.8 343h21.9l26.7 37.1 51.3-72H333.6c-17.8 0-32.3 14.4-32.3 32.3v143.5h233.6l64.5-89.7-36.6-51.2zm-137.3 58.9c0 15.2-4 26.8-12.1 34.9-8.1 8-19.2 12.1-33.5 12.1s-25.5-4-33.6-12.1c-8.1-8-12.1-19.7-12.1-34.9V343h19.4v58.1c0 10.7 2.3 18.5 6.9 23.4 4.6 4.9 11.2 7.3 19.6 7.3 8.4 0 14.9-2.4 19.5-7.3s6.9-12.7 6.9-23.4V343h19.1v58.9zm119.8 45.4H526v-44.7h-54v44.7h-19.4V343H472v43.1h54V343h19.4v104.3z"/></svg>